<svg version="1" xmlns="http://www.w3.org/2000/svg" width="1040" height="1040" viewBox="0 0 780.000000 780.000000"><path d="M333 13c-16.2 6.4-47.3 18.7-69 27.3-21.7 8.5-59.1 23.2-83 32.6-23.9 9.5-61.7 24.3-84 33.1-22.3 8.7-52.9 20.8-68 26.7L1.5 143.6.9 239C.6 291.5.2 406.1.1 493.7L0 652.9l8.7 2.5c4.9 1.4 32.6 9.8 61.8 18.7 65 19.7 140.4 42.5 212.5 64.4 30 9 71.6 21.7 92.5 28 20.9 6.3 38.8 11.5 39.7 11.5 1 0 14.9-5.2 31-11.5 66.4-26.2 140.1-55.2 234.8-92.5 22.3-8.7 53.2-20.9 68.6-27l28.2-11.1.6-56.2c.3-30.9.7-145.3.8-254.2l.3-198-13-4.2C752 118.6 663.7 91.4 652 88.1c-4.1-1.2-28-8.4-53-16.1C474.7 34 365.2 1 363.7 1.1c-.7.1-14.5 5.4-30.7 11.9zm64.9 42.6c17.4 5.2 55 16.7 83.6 25.4 28.6 8.7 56.1 17 61 18.5 5 1.5 28.6 8.6 52.5 16 23.9 7.3 57 17.4 73.5 22.4 43.7 13.2 49.5 15.1 49.5 15.9 0 .4-3.5 2-7.8 3.6-4.2 1.5-28.2 10.9-53.2 20.8-25 9.9-61.9 24.4-82 32.3-20.1 7.9-55.8 22-79.5 31.3-23.6 9.4-51.2 20.2-61.3 24.2l-18.4 7.2-22.6-6.7c-12.5-3.7-46.5-13.9-75.7-22.7C215.3 213 159.4 196.2 152 194c-4.1-1.2-25.3-7.5-47-14.1s-40.3-12.3-41.4-12.6c-2.1-.6-1.2-1.6 2.9-3.1 1.7-.6 19.4-7.6 39.5-15.5 48.7-19.4 117.3-46.5 173.5-68.7 25.3-10 54.8-21.7 65.5-26 10.7-4.3 19.9-7.9 20.4-7.9.6-.1 15.2 4.2 32.5 9.5zM732 165.4c-59.8 58.1-305.6 297.9-308.3 300.7-2.1 2.1-4 3.9-4.2 3.9-.3 0-.5-2.4-.5-5.4v-5.4l141.7-138.3c77.9-76.1 145.5-142.1 150.2-146.5 7.1-6.7 9.8-8.6 15.6-10.7 9.8-3.6 10.6-3.3 5.5 1.7zm9 21.4v4.9L580.8 348.1c-88.1 86-160.5 156.6-161 156.8-.5.1-.8-2.1-.6-5.1l.3-5.4 86.5-84.5C712.8 208 739.4 182 740.2 182c.4 0 .8 2.2.8 4.8zm-65.2-2c-.1.4-30.2 30-66.8 65.7-36.6 35.8-93.7 91.5-126.9 124-33.2 32.4-60.7 59.1-61.2 59.3-.5.2-.9-1.8-.9-4.5v-4.8l82.2-80.5c45.3-44.3 99-96.9 119.5-117 37-36.3 37.3-36.5 45-39.6 8.5-3.5 9.6-3.8 9.1-2.6zM617 208.9c0 .5-.4 1.1-.8 1.3-.5.1-40.9 39.2-89.8 86.8-48.9 47.5-92.8 90.3-97.6 94.9l-8.8 8.5v-10.3l90.1-87.9 90-88 7.7-3c8.8-3.4 9.2-3.5 9.2-2.3zm123.8 12.5l-.3 5.5-72.5 70.7c-39.9 39-110.3 107.7-156.5 152.7-46.2 45.1-85.7 83.7-87.8 85.8-2.1 2.2-4 3.9-4.3 3.9-.3 0-.4-2.5-.2-5.6l.3-5.6 160-156.3c88-86 160.4-156.4 160.8-156.4.4-.1.7 2.4.5 5.3zM553.4 236c-2.2 2-32.8 31.9-68.1 66.3-35.3 34.5-64.4 62.7-64.7 62.7-.3 0-.6-2.4-.6-5.3v-5.3l59.8-58.3 59.8-58.4 8-3.2c4.3-1.8 8.3-3 8.8-2.7.4.2-.9 2.1-3 4.2zm187.5 20.2l-.1 5.3L600.9 398C524 473.1 451.5 543.7 440 554.9l-21.1 20.4.3-5.9.3-5.9 84-82.1C701.2 288.3 739.5 251 740.3 251c.4 0 .7 2.4.6 5.2zm-244.1-.4c-.5 1.1-74.8 73.6-75.9 74-.5.2-.9-2-.8-5l.1-5.3 29.8-29c29.3-28.5 30-29.1 37.7-32.2 8.4-3.4 9.6-3.7 9.1-2.5zm-59.8 23c0 .9-15.6 16.2-16.5 16.2-.3 0-.5-2.4-.5-5.3v-5.2l7.8-3.1c8.8-3.6 9.2-3.7 9.2-2.6zm303.8 12.6l-.3 5.5-72 70.2c-39.6 38.7-109.8 107.2-156 152.2-46.2 45.1-85.9 83.9-88.3 86.3-2.4 2.4-4.5 4.4-4.8 4.4-.2 0-.4-2.4-.4-5.3v-5.2L572 450c84.2-82.2 156.3-152.7 160.3-156.7 3.9-3.9 7.6-7.2 8-7.2.4-.1.7 2.4.5 5.3zm0 34.8l-.3 5.3L697 374c-23.9 23.4-91.2 89.1-149.5 145.9-58.3 56.9-111.1 108.4-117.3 114.5l-11.3 11.1.3-6 .3-6 160-156.3c88-85.9 160.4-156.2 160.8-156.2.4 0 .7 2.4.5 5.2zM727.3 379c-7.6 7.5-52 50.9-98.8 96.5-46.7 45.6-112.6 110-146.4 143-33.7 33-61.8 60.2-62.3 60.4-.5.1-.8-2.1-.6-5.2l.3-5.5 71.5-69.9c39.3-38.4 111.6-108.9 160.5-156.7l89-86.9.3 5.4.3 5.3-13.8 13.6zm12.5 17.3l-.3 5.3-45 43.9C669.7 469.7 602 535.8 544 592.4c-58 56.6-110.1 107.4-115.7 113L418 715.5v-11.2l74.1-72.4c40.8-39.8 112.9-110.3 160.3-156.6 47.4-46.3 86.5-84.2 86.9-84.2.4-.1.7 2.3.5 5.2zm1.2 34.1v5.4L602.9 570.6C428.6 740.8 444.6 725.7 434.7 729.7c-4.4 1.8-8.3 3-8.6 2.8-.3-.3 1.3-2.3 3.4-4.4 7.2-6.9 171.6-167.3 241.8-235.9 37.9-37 69-67.2 69.3-67.2.2 0 .4 2.4.4 5.4zm-1.2 35.9l-.3 5.3-109 106.4c-59.9 58.5-113.5 110.7-119 116-8.7 8.4-11 10.1-17.7 12.8-4.3 1.7-7.9 2.7-8.1 2.4-.2-.4 15.3-16 34.5-34.7 19.2-18.7 76.1-74.4 126.6-123.7 50.4-49.3 92.1-89.7 92.5-89.7.4-.1.7 2.3.5 5.2zm.2 34.6v4.9l-89 86.9-88.9 86.8-8.1 2.9c-4.4 1.6-8.2 2.7-8.4 2.5-.1-.2 10.6-11 23.8-23.9 135.2-132 169.1-165 169.8-165 .4 0 .8 2.2.8 4.9zm0 34.4v5.3l-58.8 57.3-58.7 57.3-8.4 3.4c-4.7 1.9-8.6 3.2-8.9 2.9-.2-.2 9.4-10 21.4-21.8 12.1-11.7 42.2-41.2 66.9-65.5 24.8-24.2 45.3-44.1 45.8-44.1.4-.1.7 2.3.7 5.2zm0 35.6v4.9l-29 28.3-29 28.3-8.2 3.2c-4.5 1.8-8.4 3.1-8.6 2.9-.2-.2 10.5-11.1 23.9-24.2 13.4-13 30-29.3 36.9-36 6.9-6.8 12.8-12.3 13.3-12.3.4 0 .7 2.2.7 4.9zm-.2 33.7l-.3 4.6-6.4 2.4c-3.5 1.3-6.9 2.4-7.6 2.4-1.3 0 12.4-14 13.8-14 .4 0 .7 2.1.5 4.6z"/></svg>