<svg version="1" xmlns="http://www.w3.org/2000/svg" width="1040" height="1040" viewBox="0 0 780.000000 780.000000"><path d="M337.5 11.1c-13.7 5.5-43.4 17.2-66 26.1-106.1 41.7-167.2 65.7-240.1 94.4L1.3 143.5l-.6 122C.3 332.6 0 447.2 0 520.2v132.7l11.2 3.5c6.2 1.9 13.3 4 15.8 4.6 2.5.7 25.4 7.6 51 15.5s50.8 15.5 56 17c5.2 1.5 31.3 9.3 58 17.4 49.6 15.2 128.3 39 188 57 18.4 5.6 34.2 10.1 35.1 10.1 1.7 0 25.5-9.2 92.4-35.5C529 734 566.1 719.4 590 710c70.8-27.9 120.4-47.4 155.1-61.2l32.7-12.9.6-50.2c.3-27.6.7-142 .8-254.2l.3-204-16-5.2c-15.9-5.2-62.9-19.7-169-51.9-30.2-9.1-78.4-23.8-107-32.5-81.7-24.8-118.8-35.8-122-36.3-2.2-.3-9.8 2.3-28 9.5zm63.3 45.5c19.1 5.8 59.9 18.2 90.7 27.5 30.8 9.4 79.4 24.2 108 32.9 28.6 8.7 66.4 20.2 84 25.5 17.6 5.4 32.7 10.1 33.5 10.5 1.8 1 7.2-1.3-48.5 20.6-24.7 9.7-65.5 25.7-90.5 35.6-93.4 36.8-119.1 46.9-140.5 55.3l-21.9 8.6-29.1-8.7c-15.9-4.7-51-15.3-78-23.4-26.9-8.2-60.2-18.2-74-22.3-55-16.5-146.2-44-160.2-48.3-6.2-1.9-11.3-3.9-11.3-4.5 0-.5.5-.9 1.2-.9.6 0 19.2-7.2 41.2-15.9 22.1-8.8 60.8-24.1 86.1-34.1C260.3 87.8 304.2 70.4 336 57.6c15.7-6.3 28.9-11.5 29.3-11.5.5-.1 16.5 4.7 35.5 10.5zm312.8 126.2c-12.1 12-79.9 78.3-150.6 147.2-70.7 68.9-132 128.7-136.2 132.9l-7.8 7.6v-11.1l149.5-146 149.4-145.9 7.8-3.2c4.3-1.8 8.3-3.2 8.9-3.3.7 0-8.8 9.8-21 21.8zm27.4 4v4.8L686.3 245c-30.2 29.4-92.6 90.3-138.8 135.4-46.2 45-93.7 91.5-105.6 103.3-11.8 11.7-21.8 21.3-22.2 21.3-.4 0-.7-2.4-.6-5.3l.1-5.2 76.9-75c42.4-41.3 114.4-111.6 160.2-156.2 45.8-44.7 83.5-81.3 84-81.3.4 0 .7 2.2.7 4.8zm-65-2.4c0 .5-36.6 36.4-126.5 124.1-47.3 46.1-95.5 93.2-107.1 104.7-11.5 11.4-21.3 20.8-21.7 20.8-.4 0-.7-2.2-.7-4.9v-4.9l9.9-9.4c5.4-5.1 59.2-57.7 119.5-116.8l109.7-107.4 7.7-3.2c7.7-3.2 9.2-3.7 9.2-3zm-60 24.5c0 .5-39 38.8-86.7 85.2-47.8 46.4-91.5 88.9-97.4 94.6-5.8 5.7-10.8 10.3-11.2 10.3-.4 0-.7-2-.7-4.4v-4.3l78.8-76.9c43.3-42.3 83.8-81.9 90-87.9 11-10.6 14.8-13.1 27-17.4.1-.1.2.3.2.8zm124.8 12.5l-.3 5.3-110 107.4C570 393.2 497.8 463.7 470 490.8l-50.5 49.3-.3-5.2-.3-5.3 9.3-9.2c5.1-5 77-75.2 159.8-156 82.8-80.7 150.7-147.2 150.8-147.6.2-.4.8-.8 1.3-.8.6 0 .9 2.4.7 5.4zm-206.2 32.4c-12.1 12-42.3 41.6-67.1 65.7-24.7 24.2-45.1 44.3-45.3 44.7-1.1 2.4-2.2.1-2.2-4.5v-5.2l59.9-58.4c58.1-56.6 60.1-58.5 66.8-61.1 3.7-1.6 7.5-2.8 8.4-2.9.9-.1-8.3 9.7-20.5 21.7zm206.4 2.1v4.9L580.9 417.2c-88 86-160.5 156.4-161 156.6-.5.2-.9-1.9-.9-4.6v-5.1l102.7-100.3c56.5-55.2 128.6-125.6 160.3-156.5 31.6-31 57.8-56.3 58.3-56.3.4 0 .7 2.2.7 4.9zm-244.7.3c-.9 2.1-73.4 72.3-74.9 72.6-1 .3-1.4-.8-1.4-4.1v-4.5l30-29.3c29.3-28.6 30.3-29.4 37.8-32.5 8.9-3.7 9.3-3.8 8.5-2.2zM437 278.7c0 .5-3.9 4.3-8.6 8.7l-8.5 7.8.3-5.3.3-5.3 8-3.3c9.3-3.7 8.5-3.5 8.5-2.6zm303.8 13.1l-.3 4.9-26 25.4c-33.9 33.2-275.4 268.8-286.8 279.8l-8.8 8.6.3-5.7.3-5.7 115-112.2c63.3-61.8 135.2-132 159.8-156.1 24.7-24.1 45.3-43.8 45.8-43.8.6 0 .9 2.2.7 4.8zm.2 34.1v5L637.8 431.7C435.7 629.1 420.9 643.5 419.9 643.8c-.5.2-.9-1.9-.9-4.7v-5l160.3-156.5c88.1-86.1 160.5-156.5 161-156.6.4 0 .7 2.2.7 4.9zm0 34.9c0 4.8-.1 4.9-10.2 14.8-93 90.6-269.8 263.2-287.5 280.6-12.7 12.5-23.4 22.8-23.8 22.8-.3 0-.5-2.4-.3-5.4l.3-5.3 89-86.9c48.9-47.8 120.9-118.1 159.9-156.2 39-38 71.3-69.2 71.8-69.2.4 0 .8 2.2.8 4.8zm-1.1 35.4l-.1 5.3-63.7 62c-35 34.1-106.9 104.3-159.9 156-52.9 51.7-96.7 94.1-97.2 94.3-.6.2-1-1.8-1-4.5v-4.9l113.1-110.5c62.3-60.7 134.4-131.2 160.3-156.6 25.9-25.4 47.4-46.2 47.9-46.2.4-.1.7 2.3.6 5.1zm1.1 34.6v4.8L605.3 568.1C426 743.1 444.1 726 434.6 729.8c-4.4 1.8-8.1 3-8.3 2.9-.5-.6 25.5-26.1 176.1-173.1C677.7 486.1 739.7 426 740.2 426c.4 0 .8 2.2.8 4.8zm-1.2 35.5l-.3 5.2-118.7 115.9-118.7 115.9-7.3 2.8c-4 1.6-7.7 2.8-8.2 2.6-.5-.2 46.1-46.2 103.5-102.2s114.3-111.7 126.4-123.7c12.1-12 22.4-21.8 22.8-21.8.4 0 .7 2.4.5 5.3zm.2 34.6v4.9l-88.5 86.3-88.5 86.4-8.2 3.2c-4.5 1.8-8.3 3.1-8.5 2.9-.5-.5 191.9-188.6 193-188.6.4 0 .7 2.2.7 4.9zm0 34.3v5.3l-58.9 57.4-58.9 57.4-8.3 3.4c-4.5 1.8-8.4 3.1-8.6 3-.5-.6 133.1-131.7 134.2-131.7.3 0 .5 2.4.5 5.2zm0 35.7v4.9l-28.5 27.8c-27.8 27.1-28.8 28-36.6 31.3-4.3 1.9-8.1 3.2-8.4 2.9-.7-.6 71.4-71.8 72.8-71.8.4 0 .7 2.2.7 4.9zm0 33.5v4.4l-7.1 2.7c-3.8 1.5-7.2 2.5-7.5 2.3-.4-.5 13.2-13.8 14.1-13.8.3 0 .5 2 .5 4.4z"/></svg>